<svg xmlns="http://www.w3.org/2000/svg" viewBox="0 0 800 450" width="800" height="450" role="img" aria-label="Warehouse KPI dashboard cover">
  <defs>
    <linearGradient id="bg2" x1="0" y1="0" x2="1" y2="1">
      <stop offset="0%" stop-color="#0a1224"/>
      <stop offset="100%" stop-color="#0e2238"/>
    </linearGradient>
    <linearGradient id="bar" x1="0" y1="1" x2="0" y2="0">
      <stop offset="0%" stop-color="#06b6d4"/>
      <stop offset="100%" stop-color="#a855f7"/>
    </linearGradient>
  </defs>
  <rect width="800" height="450" fill="url(#bg2)"/>
  <g fill="url(#bar)" opacity="0.92">
    <rect x="80"  y="260" width="48" height="120" rx="6"/>
    <rect x="150" y="200" width="48" height="180" rx="6"/>
    <rect x="220" y="240" width="48" height="140" rx="6"/>
    <rect x="290" y="160" width="48" height="220" rx="6"/>
    <rect x="360" y="220" width="48" height="160" rx="6"/>
    <rect x="430" y="180" width="48" height="200" rx="6"/>
    <rect x="500" y="140" width="48" height="240" rx="6"/>
    <rect x="570" y="200" width="48" height="180" rx="6"/>
    <rect x="640" y="170" width="48" height="210" rx="6"/>
  </g>
  <path d="M80 320 L 174 280 L 244 300 L 314 220 L 384 250 L 454 210 L 524 180 L 594 230 L 664 200" fill="none" stroke="#fde68a" stroke-width="3" opacity="0.85"/>
  <g fill="#fde68a">
    <circle cx="80" cy="320" r="4"/><circle cx="174" cy="280" r="4"/><circle cx="244" cy="300" r="4"/>
    <circle cx="314" cy="220" r="4"/><circle cx="384" cy="250" r="4"/><circle cx="454" cy="210" r="4"/>
    <circle cx="524" cy="180" r="4"/><circle cx="594" cy="230" r="4"/><circle cx="664" cy="200" r="4"/>
  </g>
  <g fill="#e6e8ef" font-family="Inter, system-ui, sans-serif">
    <text x="40" y="60" font-size="22" font-weight="700">Warehouse Ops · KPI Dashboard</text>
    <text x="40" y="86" font-size="14" fill="#94a3b8">Tableau · SAP HANA · 15 KPIs</text>
  </g>
</svg>
