<svg xmlns="http://www.w3.org/2000/svg" width="16" height="16" viewBox="0 0 24 24"><path fill="#55acee" d="M21.137 7.364A9.355 9.355 0 0 0 23.5 4.941V4.94a9.904 9.904 0 0 1-2.717.737 4.652 4.652 0 0 0 2.075-2.58 9.503 9.503 0 0 1-2.99 1.13c-3.266-3.445-9.113-.397-8.047 4.256A13.396 13.396 0 0 1 2.101 3.6 4.64 4.64 0 0 0 3.55 9.839a4.7 4.7 0 0 1-2.13-.575c0 2.406 1.702 4.218 3.778 4.638-.721.196-1.607.188-2.128.074a4.755 4.755 0 0 0 4.406 3.252c-2.06 1.595-4.644 2.219-6.975 1.927a13.376 13.376 0 0 0 7.233 2.095c8.313 0 13.744-6.865 13.403-13.886z"/><path d="M7.826 21.75c-2.67 0-5.256-.745-7.478-2.155a.75.75 0 0 1 .494-1.377c.306.038.637.056 1.011.056 1.3 0 2.585-.296 3.745-.85a5.384 5.384 0 0 1-3.047-3.264.75.75 0 0 1 .192-.777A5.29 5.29 0 0 1 .9 9.388c0-.264.139-.534.366-.669a.848.848 0 0 1 .297-.11 5.243 5.243 0 0 1 .106-5.16.749.749 0 0 1 1.226-.099 12.431 12.431 0 0 0 8.077 4.405 7.318 7.318 0 0 1-.003-.211c0-2.918 2.404-5.292 5.36-5.292 1.406 0 2.769.554 3.77 1.526.833.232 1.638.096 2.523-.423A.747.747 0 0 1 23.75 4c0 1.499-1.107 3.037-2.048 3.843.002.077.003.155.003.233 0 6.722-5.191 13.674-13.879 13.674zm-4.04-2.162c1.288.437 2.651.662 4.041.662 7.749 0 12.379-6.19 12.379-12.174 0-.188-.007-.371-.016-.551a.75.75 0 0 1 .319-.651c.495-.346 1.024-.961 1.368-1.609-.811.19-1.62.152-2.418-.117a.75.75 0 0 1-.304-.193 3.92 3.92 0 0 0-2.827-1.205c-2.128 0-3.86 1.701-3.86 3.792 0 .328.029.611.088.867a.753.753 0 0 1-.767.918A13.947 13.947 0 0 1 2.55 5.203c-.077.3-.116.607-.116.919 0 1.266.64 2.442 1.712 3.148.279.184.403.53.304.849s-.381.534-.73.528a5.184 5.184 0 0 1-1.144-.152 3.851 3.851 0 0 0 2.917 2.62.752.752 0 0 1 .048 1.46 5.18 5.18 0 0 1-1.024.164 3.913 3.913 0 0 0 3.072 1.598.75.75 0 0 1 .441 1.344 10.132 10.132 0 0 1-4.244 1.907z"/></svg>